<?xml version="1.0" encoding="UTF-8" standalone="no"?>
<!DOCTYPE svg PUBLIC "-//W3C//DTD SVG 1.1//EN"
 "http://www.w3.org/Graphics/SVG/1.1/DTD/svg11.dtd">
<!-- Generated by graphviz version 2.38.0 (20140413.2041)
 -->
<!-- Title: G Pages: 1 -->
<svg width="729pt" height="400pt"
 viewBox="0.00 0.00 729.00 400.00" xmlns="http://www.w3.org/2000/svg" xmlns:xlink="http://www.w3.org/1999/xlink">
<g id="graph0" class="graph" transform="scale(1 1) rotate(0) translate(4 396)">
<title>G</title>
<polygon fill="lavender" stroke="none" points="-4,4 -4,-396 725,-396 725,4 -4,4"/>
<text text-anchor="middle" x="360.5" y="-372" font-family="Helvetica,sans-Serif" font-weight="bold" font-size="20.00" fill="#141414">Testing Testing</text>
<g id="clust1" class="cluster"><title>cluster_1</title>
<defs>
<linearGradient id="l_0" gradientUnits="userSpaceOnUse" x1="359" y1="-332" x2="359" y2="-252" >
<stop offset="0" style="stop-color:#00cd66;stop-opacity:1.;"/>
<stop offset="1" style="stop-color:green;stop-opacity:1.;"/>
</linearGradient>
</defs>
<polygon fill="url(#l_0)" stroke="black" points="99,-252 99,-332 619,-332 619,-252 99,-252"/>
<text text-anchor="middle" x="359" y="-312" font-family="Helvetica,sans-Serif" font-weight="bold" font-size="20.00">Inputs</text>
</g>
<g id="clust2" class="cluster"><title>cluster_2</title>
<defs>
<radialGradient id="r_0" cx="50%" cy="50%" r="75%" fx="50%" fy="50%">
<stop offset="0" style="stop-color:lavenderblush;stop-opacity:1.;"/>
<stop offset="1" style="stop-color:dimgrey;stop-opacity:1.;"/>
</radialGradient>
</defs>
<polygon fill="url(#r_0)" stroke="midnightblue" points="8,-108 8,-232 713,-232 713,-108 8,-108"/>
</g>
<g id="clust3" class="cluster"><title>cluster_3</title>
<defs>
<linearGradient id="l_1" gradientUnits="userSpaceOnUse" x1="360" y1="-8" x2="360" y2="-88" >
<stop offset="0" style="stop-color:#00cd66;stop-opacity:1.;"/>
<stop offset="1" style="stop-color:green;stop-opacity:1.;"/>
</linearGradient>
</defs>
<polygon fill="url(#l_1)" stroke="black" points="190,-8 190,-88 530,-88 530,-8 190,-8"/>
<text text-anchor="middle" x="360" y="-16" font-family="Helvetica,sans-Serif" font-weight="bold" font-size="20.00">Outputs</text>
</g>
<!-- 0 -->
<g id="node1" class="node"><title>0</title>
<defs>
<linearGradient id="l_2" gradientUnits="userSpaceOnUse" x1="197" y1="-278" x2="251" y2="-278" >
<stop offset="0" style="stop-color:orange;stop-opacity:1.;"/>
<stop offset="1" style="stop-color:firebrick;stop-opacity:1.;"/>
</linearGradient>
</defs>
<ellipse fill="url(#l_2)" stroke="midnightblue" cx="224" cy="-278" rx="27" ry="18"/>
<text text-anchor="middle" x="224" y="-273.8" font-family="Helvetica,sans-Serif" font-weight="bold" font-size="14.00">2</text>
</g>
<!-- 6 -->
<g id="node7" class="node"><title>6</title>
<defs>
<linearGradient id="l_3" gradientUnits="userSpaceOnUse" x1="382.24" y1="-196.196" x2="427.76" y2="-215.804" >
<stop offset="0.169" style="stop-color:yellow;stop-opacity:1.;"/>
<stop offset="0.170" style="stop-color:#00bfff;stop-opacity:1.;"/>
</linearGradient>
</defs>
<ellipse fill="url(#l_3)" stroke="midnightblue" cx="405" cy="-206" rx="27.1387" ry="18"/>
<text text-anchor="middle" x="405" y="-201.8" font-family="Helvetica,sans-Serif" font-weight="bold" font-size="14.00" fill="#121212">0.17</text>
</g>
<!-- 0&#45;&gt;6 -->
<g id="edge25" class="edge"><title>0:s&#45;&gt;6:n</title>
<path fill="none" stroke="#36648b" d="M224,-259C224,-259 363.818,-232.736 397.68,-226.375"/>
<polygon fill="#36648b" stroke="#36648b" points="398.573,-228.7 405,-225 397.668,-223.885 398.573,-228.7"/>
</g>
<!-- 7 -->
<g id="node8" class="node"><title>7</title>
<defs>
<linearGradient id="l_4" gradientUnits="userSpaceOnUse" x1="291.24" y1="-196.196" x2="336.76" y2="-215.804" >
<stop offset="0.529" style="stop-color:yellow;stop-opacity:1.;"/>
<stop offset="0.530" style="stop-color:#00bfff;stop-opacity:1.;"/>
</linearGradient>
</defs>
<ellipse fill="url(#l_4)" stroke="midnightblue" cx="314" cy="-206" rx="27.1387" ry="18"/>
<text text-anchor="middle" x="314" y="-201.8" font-family="Helvetica,sans-Serif" font-weight="bold" font-size="14.00" fill="#121212">0.53</text>
</g>
<!-- 0&#45;&gt;7 -->
<g id="edge26" class="edge"><title>0:s&#45;&gt;7:n</title>
<path fill="none" stroke="#36648b" d="M224,-259C224,-259 286.305,-235.463 307.235,-227.556"/>
<polygon fill="#36648b" stroke="#36648b" points="308.318,-229.766 314,-225 306.586,-225.182 308.318,-229.766"/>
</g>
<!-- 8 -->
<g id="node9" class="node"><title>8</title>
<defs>
<linearGradient id="l_5" gradientUnits="userSpaceOnUse" x1="200.24" y1="-196.196" x2="245.76" y2="-215.804" >
<stop offset="0.639" style="stop-color:yellow;stop-opacity:1.;"/>
<stop offset="0.640" style="stop-color:#00bfff;stop-opacity:1.;"/>
</linearGradient>
</defs>
<ellipse fill="url(#l_5)" stroke="midnightblue" cx="223" cy="-206" rx="27.1387" ry="18"/>
<text text-anchor="middle" x="223" y="-201.8" font-family="Helvetica,sans-Serif" font-weight="bold" font-size="14.00" fill="#121212">0.64</text>
</g>
<!-- 0&#45;&gt;8 -->
<g id="edge27" class="edge"><title>0:s&#45;&gt;8:n</title>
<path fill="none" stroke="#36648b" d="M224,-259C224,-259 223.506,-242.191 223.212,-232.211"/>
<polygon fill="#36648b" stroke="#36648b" points="225.655,-231.925 223,-225 220.757,-232.069 225.655,-231.925"/>
</g>
<!-- 9 -->
<g id="node10" class="node"><title>9</title>
<defs>
<linearGradient id="l_6" gradientUnits="userSpaceOnUse" x1="109.24" y1="-196.196" x2="154.76" y2="-215.804" >
<stop offset="0.279" style="stop-color:yellow;stop-opacity:1.;"/>
<stop offset="0.280" style="stop-color:#00bfff;stop-opacity:1.;"/>
</linearGradient>
</defs>
<ellipse fill="url(#l_6)" stroke="midnightblue" cx="132" cy="-206" rx="27.1387" ry="18"/>
<text text-anchor="middle" x="132" y="-201.8" font-family="Helvetica,sans-Serif" font-weight="bold" font-size="14.00" fill="#121212">0.28</text>
</g>
<!-- 0&#45;&gt;9 -->
<g id="edge28" class="edge"><title>0:s&#45;&gt;9:n</title>
<path fill="none" stroke="#36648b" d="M224,-259C224,-259 159.711,-235.241 138.616,-227.445"/>
<polygon fill="#36648b" stroke="#36648b" points="139.415,-225.129 132,-225 137.717,-229.725 139.415,-225.129"/>
</g>
<!-- 10 -->
<g id="node11" class="node"><title>10</title>
<defs>
<linearGradient id="l_7" gradientUnits="userSpaceOnUse" x1="564.24" y1="-196.196" x2="609.76" y2="-215.804" >
<stop offset="0.489" style="stop-color:yellow;stop-opacity:1.;"/>
<stop offset="0.490" style="stop-color:#00bfff;stop-opacity:1.;"/>
</linearGradient>
</defs>
<ellipse fill="url(#l_7)" stroke="midnightblue" cx="587" cy="-206" rx="27.1387" ry="18"/>
<text text-anchor="middle" x="587" y="-201.8" font-family="Helvetica,sans-Serif" font-weight="bold" font-size="14.00" fill="#121212">0.49</text>
</g>
<!-- 0&#45;&gt;10 -->
<g id="edge29" class="edge"><title>0:s&#45;&gt;10:n</title>
<path fill="none" stroke="#36648b" d="M224,-259C224,-259 528.588,-230.471 579.749,-225.679"/>
<polygon fill="#36648b" stroke="#36648b" points="580.259,-228.092 587,-225 579.802,-223.214 580.259,-228.092"/>
</g>
<!-- 11 -->
<g id="node12" class="node"><title>11</title>
<defs>
<linearGradient id="l_8" gradientUnits="userSpaceOnUse" x1="473.24" y1="-196.196" x2="518.76" y2="-215.804" >
<stop offset="0.389" style="stop-color:yellow;stop-opacity:1.;"/>
<stop offset="0.390" style="stop-color:#00bfff;stop-opacity:1.;"/>
</linearGradient>
</defs>
<ellipse fill="url(#l_8)" stroke="midnightblue" cx="496" cy="-206" rx="27.1387" ry="18"/>
<text text-anchor="middle" x="496" y="-201.8" font-family="Helvetica,sans-Serif" font-weight="bold" font-size="14.00" fill="#121212">0.39</text>
</g>
<!-- 0&#45;&gt;11 -->
<g id="edge30" class="edge"><title>0:s&#45;&gt;11:n</title>
<path fill="none" stroke="#36648b" d="M224,-259C224,-259 446.429,-231.196 489.003,-225.875"/>
<polygon fill="#36648b" stroke="#36648b" points="489.358,-228.299 496,-225 488.75,-223.437 489.358,-228.299"/>
</g>
<!-- 1 -->
<g id="node2" class="node"><title>1</title>
<defs>
<linearGradient id="l_9" gradientUnits="userSpaceOnUse" x1="107" y1="-278" x2="161" y2="-278" >
<stop offset="0" style="stop-color:orange;stop-opacity:1.;"/>
<stop offset="1" style="stop-color:firebrick;stop-opacity:1.;"/>
</linearGradient>
</defs>
<ellipse fill="url(#l_9)" stroke="midnightblue" cx="134" cy="-278" rx="27" ry="18"/>
<text text-anchor="middle" x="134" y="-273.8" font-family="Helvetica,sans-Serif" font-weight="bold" font-size="14.00">1</text>
</g>
<!-- 1&#45;&gt;6 -->
<g id="edge13" class="edge"><title>1:s&#45;&gt;6:n</title>
<path fill="none" stroke="#36648b" d="M134,-259C134,-259 355.611,-231.196 398.029,-225.875"/>
<polygon fill="#36648b" stroke="#36648b" points="398.359,-228.302 405,-225 397.749,-223.441 398.359,-228.302"/>
</g>
<!-- 1&#45;&gt;7 -->
<g id="edge14" class="edge"><title>1:s&#45;&gt;7:n</title>
<path fill="none" stroke="#36648b" d="M134,-259C134,-259 273.046,-232.736 306.721,-226.375"/>
<polygon fill="#36648b" stroke="#36648b" points="307.576,-228.707 314,-225 306.667,-223.892 307.576,-228.707"/>
</g>
<!-- 1&#45;&gt;8 -->
<g id="edge15" class="edge"><title>1:s&#45;&gt;8:n</title>
<path fill="none" stroke="#36648b" d="M134,-259C134,-259 195.613,-235.463 216.311,-227.556"/>
<polygon fill="#36648b" stroke="#36648b" points="217.335,-229.787 223,-225 215.587,-225.209 217.335,-229.787"/>
</g>
<!-- 1&#45;&gt;9 -->
<g id="edge16" class="edge"><title>1:s&#45;&gt;9:n</title>
<path fill="none" stroke="#36648b" d="M134,-259C134,-259 133.011,-242.191 132.424,-232.211"/>
<polygon fill="#36648b" stroke="#36648b" points="134.857,-231.844 132,-225 129.965,-232.132 134.857,-231.844"/>
</g>
<!-- 1&#45;&gt;10 -->
<g id="edge17" class="edge"><title>1:s&#45;&gt;10:n</title>
<path fill="none" stroke="#36648b" d="M134,-259C134,-259 522.253,-229.86 579.884,-225.534"/>
<polygon fill="#36648b" stroke="#36648b" points="580.203,-227.967 587,-225 579.836,-223.081 580.203,-227.967"/>
</g>
<!-- 1&#45;&gt;11 -->
<g id="edge18" class="edge"><title>1:s&#45;&gt;11:n</title>
<path fill="none" stroke="#36648b" d="M134,-259C134,-259 437.749,-230.471 488.769,-225.679"/>
<polygon fill="#36648b" stroke="#36648b" points="489.26,-228.094 496,-225 488.802,-223.215 489.26,-228.094"/>
</g>
<!-- 2 -->
<g id="node3" class="node"><title>2</title>
<defs>
<linearGradient id="l_10" gradientUnits="userSpaceOnUse" x1="557" y1="-278" x2="611" y2="-278" >
<stop offset="0" style="stop-color:orange;stop-opacity:1.;"/>
<stop offset="1" style="stop-color:firebrick;stop-opacity:1.;"/>
</linearGradient>
</defs>
<ellipse fill="url(#l_10)" stroke="midnightblue" cx="584" cy="-278" rx="27" ry="18"/>
<text text-anchor="middle" x="584" y="-273.8" font-family="Helvetica,sans-Serif" font-weight="bold" font-size="14.00">6</text>
</g>
<!-- 2&#45;&gt;6 -->
<g id="edge1" class="edge"><title>2:s&#45;&gt;6:n</title>
<path fill="none" stroke="#36648b" d="M584,-259C584,-259 445.727,-232.736 412.239,-226.375"/>
<polygon fill="#36648b" stroke="#36648b" points="412.334,-223.899 405,-225 411.42,-228.713 412.334,-223.899"/>
</g>
<!-- 2&#45;&gt;7 -->
<g id="edge2" class="edge"><title>2:s&#45;&gt;7:n</title>
<path fill="none" stroke="#36648b" d="M584,-259C584,-259 363.207,-231.196 320.946,-225.875"/>
<polygon fill="#36648b" stroke="#36648b" points="321.251,-223.444 314,-225 320.639,-228.305 321.251,-223.444"/>
</g>
<!-- 2&#45;&gt;8 -->
<g id="edge3" class="edge"><title>2:s&#45;&gt;8:n</title>
<path fill="none" stroke="#36648b" d="M584,-259C584,-259 281.09,-230.471 230.211,-225.679"/>
<polygon fill="#36648b" stroke="#36648b" points="230.199,-223.217 223,-225 229.739,-228.096 230.199,-223.217"/>
</g>
<!-- 2&#45;&gt;9 -->
<g id="edge4" class="edge"><title>2:s&#45;&gt;9:n</title>
<path fill="none" stroke="#36648b" d="M584,-259C584,-259 196.604,-229.86 139.1,-225.534"/>
<polygon fill="#36648b" stroke="#36648b" points="139.164,-223.082 132,-225 138.796,-227.968 139.164,-223.082"/>
</g>
<!-- 2&#45;&gt;10 -->
<g id="edge5" class="edge"><title>2:s&#45;&gt;10:n</title>
<path fill="none" stroke="#36648b" d="M584,-259C584,-259 585.483,-242.191 586.364,-232.211"/>
<polygon fill="#36648b" stroke="#36648b" points="588.825,-232.188 587,-225 583.944,-231.758 588.825,-232.188"/>
</g>
<!-- 2&#45;&gt;11 -->
<g id="edge6" class="edge"><title>2:s&#45;&gt;11:n</title>
<path fill="none" stroke="#36648b" d="M584,-259C584,-259 523.08,-235.463 502.614,-227.556"/>
<polygon fill="#36648b" stroke="#36648b" points="503.413,-225.238 496,-225 501.647,-229.808 503.413,-225.238"/>
</g>
<!-- 3 -->
<g id="node4" class="node"><title>3</title>
<defs>
<linearGradient id="l_11" gradientUnits="userSpaceOnUse" x1="467" y1="-278" x2="521" y2="-278" >
<stop offset="0" style="stop-color:orange;stop-opacity:1.;"/>
<stop offset="1" style="stop-color:firebrick;stop-opacity:1.;"/>
</linearGradient>
</defs>
<ellipse fill="url(#l_11)" stroke="midnightblue" cx="494" cy="-278" rx="27" ry="18"/>
<text text-anchor="middle" x="494" y="-273.8" font-family="Helvetica,sans-Serif" font-weight="bold" font-size="14.00">5</text>
</g>
<!-- 3&#45;&gt;6 -->
<g id="edge7" class="edge"><title>3:s&#45;&gt;6:n</title>
<path fill="none" stroke="#36648b" d="M494,-259C494,-259 432.387,-235.463 411.689,-227.556"/>
<polygon fill="#36648b" stroke="#36648b" points="412.413,-225.209 405,-225 410.665,-229.787 412.413,-225.209"/>
</g>
<!-- 3&#45;&gt;7 -->
<g id="edge8" class="edge"><title>3:s&#45;&gt;7:n</title>
<path fill="none" stroke="#36648b" d="M494,-259C494,-259 354.954,-232.736 321.279,-226.375"/>
<polygon fill="#36648b" stroke="#36648b" points="321.333,-223.892 314,-225 320.424,-228.707 321.333,-223.892"/>
</g>
<!-- 3&#45;&gt;8 -->
<g id="edge9" class="edge"><title>3:s&#45;&gt;8:n</title>
<path fill="none" stroke="#36648b" d="M494,-259C494,-259 272.389,-231.196 229.971,-225.875"/>
<polygon fill="#36648b" stroke="#36648b" points="230.251,-223.441 223,-225 229.641,-228.302 230.251,-223.441"/>
</g>
<!-- 3&#45;&gt;9 -->
<g id="edge10" class="edge"><title>3:s&#45;&gt;9:n</title>
<path fill="none" stroke="#36648b" d="M494,-259C494,-259 190.251,-230.471 139.231,-225.679"/>
<polygon fill="#36648b" stroke="#36648b" points="139.198,-223.215 132,-225 138.74,-228.094 139.198,-223.215"/>
</g>
<!-- 3&#45;&gt;10 -->
<g id="edge11" class="edge"><title>3:s&#45;&gt;10:n</title>
<path fill="none" stroke="#36648b" d="M494,-259C494,-259 558.988,-235.241 580.312,-227.445"/>
<polygon fill="#36648b" stroke="#36648b" points="581.267,-229.705 587,-225 579.584,-225.103 581.267,-229.705"/>
</g>
<!-- 3&#45;&gt;11 -->
<g id="edge12" class="edge"><title>3:s&#45;&gt;11:n</title>
<path fill="none" stroke="#36648b" d="M494,-259C494,-259 494.989,-242.191 495.576,-232.211"/>
<polygon fill="#36648b" stroke="#36648b" points="498.035,-232.132 496,-225 493.143,-231.844 498.035,-232.132"/>
</g>
<!-- 4 -->
<g id="node5" class="node"><title>4</title>
<defs>
<linearGradient id="l_12" gradientUnits="userSpaceOnUse" x1="377" y1="-278" x2="431" y2="-278" >
<stop offset="0" style="stop-color:orange;stop-opacity:1.;"/>
<stop offset="1" style="stop-color:firebrick;stop-opacity:1.;"/>
</linearGradient>
</defs>
<ellipse fill="url(#l_12)" stroke="midnightblue" cx="404" cy="-278" rx="27" ry="18"/>
<text text-anchor="middle" x="404" y="-273.8" font-family="Helvetica,sans-Serif" font-weight="bold" font-size="14.00">4</text>
</g>
<!-- 4&#45;&gt;6 -->
<g id="edge19" class="edge"><title>4:s&#45;&gt;6:n</title>
<path fill="none" stroke="#36648b" d="M404,-259C404,-259 404.494,-242.191 404.788,-232.211"/>
<polygon fill="#36648b" stroke="#36648b" points="407.243,-232.069 405,-225 402.345,-231.925 407.243,-232.069"/>
</g>
<!-- 4&#45;&gt;7 -->
<g id="edge20" class="edge"><title>4:s&#45;&gt;7:n</title>
<path fill="none" stroke="#36648b" d="M404,-259C404,-259 341.695,-235.463 320.765,-227.556"/>
<polygon fill="#36648b" stroke="#36648b" points="321.414,-225.182 314,-225 319.682,-229.766 321.414,-225.182"/>
</g>
<!-- 4&#45;&gt;8 -->
<g id="edge21" class="edge"><title>4:s&#45;&gt;8:n</title>
<path fill="none" stroke="#36648b" d="M404,-259C404,-259 264.182,-232.736 230.32,-226.375"/>
<polygon fill="#36648b" stroke="#36648b" points="230.332,-223.885 223,-225 229.427,-228.7 230.332,-223.885"/>
</g>
<!-- 4&#45;&gt;9 -->
<g id="edge22" class="edge"><title>4:s&#45;&gt;9:n</title>
<path fill="none" stroke="#36648b" d="M404,-259C404,-259 181.571,-231.196 138.997,-225.875"/>
<polygon fill="#36648b" stroke="#36648b" points="139.25,-223.437 132,-225 138.642,-228.299 139.25,-223.437"/>
</g>
<!-- 4&#45;&gt;10 -->
<g id="edge23" class="edge"><title>4:s&#45;&gt;10:n</title>
<path fill="none" stroke="#36648b" d="M404,-259C404,-259 546.622,-232.502 580.05,-226.291"/>
<polygon fill="#36648b" stroke="#36648b" points="580.565,-228.688 587,-225 579.67,-223.87 580.565,-228.688"/>
</g>
<!-- 4&#45;&gt;11 -->
<g id="edge24" class="edge"><title>4:s&#45;&gt;11:n</title>
<path fill="none" stroke="#36648b" d="M404,-259C404,-259 468.289,-235.241 489.384,-227.445"/>
<polygon fill="#36648b" stroke="#36648b" points="490.283,-229.725 496,-225 488.585,-225.129 490.283,-229.725"/>
</g>
<!-- 5 -->
<g id="node6" class="node"><title>5</title>
<defs>
<linearGradient id="l_13" gradientUnits="userSpaceOnUse" x1="287" y1="-278" x2="341" y2="-278" >
<stop offset="0" style="stop-color:orange;stop-opacity:1.;"/>
<stop offset="1" style="stop-color:firebrick;stop-opacity:1.;"/>
</linearGradient>
</defs>
<ellipse fill="url(#l_13)" stroke="midnightblue" cx="314" cy="-278" rx="27" ry="18"/>
<text text-anchor="middle" x="314" y="-273.8" font-family="Helvetica,sans-Serif" font-weight="bold" font-size="14.00">3</text>
</g>
<!-- 5&#45;&gt;6 -->
<g id="edge31" class="edge"><title>5:s&#45;&gt;6:n</title>
<path fill="none" stroke="#36648b" d="M314,-259C314,-259 376.997,-235.463 398.16,-227.556"/>
<polygon fill="#36648b" stroke="#36648b" points="399.3,-229.745 405,-225 397.585,-225.155 399.3,-229.745"/>
</g>
<!-- 5&#45;&gt;7 -->
<g id="edge32" class="edge"><title>5:s&#45;&gt;7:n</title>
<path fill="none" stroke="#36648b" d="M314,-259C314,-259 314,-242.191 314,-232.211"/>
<polygon fill="#36648b" stroke="#36648b" points="316.45,-232 314,-225 311.55,-232 316.45,-232"/>
</g>
<!-- 5&#45;&gt;8 -->
<g id="edge33" class="edge"><title>5:s&#45;&gt;8:n</title>
<path fill="none" stroke="#36648b" d="M314,-259C314,-259 251.003,-235.463 229.84,-227.556"/>
<polygon fill="#36648b" stroke="#36648b" points="230.415,-225.155 223,-225 228.7,-229.745 230.415,-225.155"/>
</g>
<!-- 5&#45;&gt;9 -->
<g id="edge34" class="edge"><title>5:s&#45;&gt;9:n</title>
<path fill="none" stroke="#36648b" d="M314,-259C314,-259 172.157,-232.502 138.912,-226.291"/>
<polygon fill="#36648b" stroke="#36648b" points="139.331,-223.877 132,-225 138.431,-228.694 139.331,-223.877"/>
</g>
<!-- 5&#45;&gt;10 -->
<g id="edge35" class="edge"><title>5:s&#45;&gt;10:n</title>
<path fill="none" stroke="#36648b" d="M314,-259C314,-259 537.247,-231.196 579.977,-225.875"/>
<polygon fill="#36648b" stroke="#36648b" points="580.356,-228.296 587,-225 579.751,-223.434 580.356,-228.296"/>
</g>
<!-- 5&#45;&gt;11 -->
<g id="edge36" class="edge"><title>5:s&#45;&gt;11:n</title>
<path fill="none" stroke="#36648b" d="M314,-259C314,-259 455.843,-232.502 489.088,-226.291"/>
<polygon fill="#36648b" stroke="#36648b" points="489.569,-228.694 496,-225 488.669,-223.877 489.569,-228.694"/>
</g>
<!-- 12 -->
<g id="node13" class="node"><title>12</title>
<defs>
<linearGradient id="l_14" gradientUnits="userSpaceOnUse" x1="20.2396" y1="-124.196" x2="65.7604" y2="-143.804" >
<stop offset="0.389" style="stop-color:yellow;stop-opacity:1.;"/>
<stop offset="0.390" style="stop-color:#00bfff;stop-opacity:1.;"/>
</linearGradient>
</defs>
<ellipse fill="url(#l_14)" stroke="midnightblue" cx="43" cy="-134" rx="27.1387" ry="18"/>
<text text-anchor="middle" x="43" y="-129.8" font-family="Helvetica,sans-Serif" font-weight="bold" font-size="14.00" fill="#121212">0.39</text>
</g>
<!-- 6&#45;&gt;12 -->
<g id="edge37" class="edge"><title>6:s&#45;&gt;12:n</title>
<path fill="none" stroke="#8b8878" d="M405,-188C405,-188 43,-152 43,-152"/>
</g>
<!-- 13 -->
<g id="node14" class="node"><title>13</title>
<defs>
<linearGradient id="l_15" gradientUnits="userSpaceOnUse" x1="111.24" y1="-124.196" x2="156.76" y2="-143.804" >
<stop offset="0.339" style="stop-color:yellow;stop-opacity:1.;"/>
<stop offset="0.340" style="stop-color:#00bfff;stop-opacity:1.;"/>
</linearGradient>
</defs>
<ellipse fill="url(#l_15)" stroke="midnightblue" cx="134" cy="-134" rx="27.1387" ry="18"/>
<text text-anchor="middle" x="134" y="-129.8" font-family="Helvetica,sans-Serif" font-weight="bold" font-size="14.00" fill="#121212">0.34</text>
</g>
<!-- 6&#45;&gt;13 -->
<g id="edge38" class="edge"><title>6:s&#45;&gt;13:n</title>
<path fill="none" stroke="#8b8878" d="M405,-188C405,-188 134,-152 134,-152"/>
</g>
<!-- 14 -->
<g id="node15" class="node"><title>14</title>
<defs>
<linearGradient id="l_16" gradientUnits="userSpaceOnUse" x1="202.24" y1="-124.196" x2="247.76" y2="-143.804" >
<stop offset="0.149" style="stop-color:yellow;stop-opacity:1.;"/>
<stop offset="0.150" style="stop-color:#00bfff;stop-opacity:1.;"/>
</linearGradient>
</defs>
<ellipse fill="url(#l_16)" stroke="midnightblue" cx="225" cy="-134" rx="27.1387" ry="18"/>
<text text-anchor="middle" x="225" y="-129.8" font-family="Helvetica,sans-Serif" font-weight="bold" font-size="14.00" fill="#121212">0.15</text>
</g>
<!-- 6&#45;&gt;14 -->
<g id="edge39" class="edge"><title>6:s&#45;&gt;14:n</title>
<path fill="none" stroke="#8b8878" d="M405,-188C405,-188 225,-152 225,-152"/>
</g>
<!-- 15 -->
<g id="node16" class="node"><title>15</title>
<defs>
<linearGradient id="l_17" gradientUnits="userSpaceOnUse" x1="292.356" y1="-124.196" x2="337.644" y2="-143.804" >
<stop offset="0.109" style="stop-color:yellow;stop-opacity:1.;"/>
<stop offset="0.110" style="stop-color:#00bfff;stop-opacity:1.;"/>
</linearGradient>
</defs>
<ellipse fill="url(#l_17)" stroke="midnightblue" cx="315" cy="-134" rx="27" ry="18"/>
<text text-anchor="middle" x="315" y="-129.8" font-family="Helvetica,sans-Serif" font-weight="bold" font-size="14.00" fill="#121212">0.11</text>
</g>
<!-- 6&#45;&gt;15 -->
<g id="edge40" class="edge"><title>6:s&#45;&gt;15:n</title>
<path fill="none" stroke="#8b8878" d="M405,-188C405,-188 315,-152 315,-152"/>
</g>
<!-- 16 -->
<g id="node17" class="node"><title>16</title>
<defs>
<linearGradient id="l_18" gradientUnits="userSpaceOnUse" x1="382.24" y1="-124.196" x2="427.76" y2="-143.804" >
<stop offset="0.939" style="stop-color:yellow;stop-opacity:1.;"/>
<stop offset="0.940" style="stop-color:#00bfff;stop-opacity:1.;"/>
</linearGradient>
</defs>
<ellipse fill="url(#l_18)" stroke="midnightblue" cx="405" cy="-134" rx="27.1387" ry="18"/>
<text text-anchor="middle" x="405" y="-129.8" font-family="Helvetica,sans-Serif" font-weight="bold" font-size="14.00" fill="#121212">0.94</text>
</g>
<!-- 6&#45;&gt;16 -->
<g id="edge41" class="edge"><title>6:s&#45;&gt;16:n</title>
<path fill="none" stroke="#8b8878" d="M405,-188C405,-188 405,-152 405,-152"/>
</g>
<!-- 17 -->
<g id="node18" class="node"><title>17</title>
<defs>
<linearGradient id="l_19" gradientUnits="userSpaceOnUse" x1="473.24" y1="-124.196" x2="518.76" y2="-143.804" >
<stop offset="0.239" style="stop-color:yellow;stop-opacity:1.;"/>
<stop offset="0.240" style="stop-color:#00bfff;stop-opacity:1.;"/>
</linearGradient>
</defs>
<ellipse fill="url(#l_19)" stroke="midnightblue" cx="496" cy="-134" rx="27.1387" ry="18"/>
<text text-anchor="middle" x="496" y="-129.8" font-family="Helvetica,sans-Serif" font-weight="bold" font-size="14.00" fill="#121212">0.24</text>
</g>
<!-- 6&#45;&gt;17 -->
<g id="edge42" class="edge"><title>6:s&#45;&gt;17:n</title>
<path fill="none" stroke="#8b8878" d="M405,-188C405,-188 496,-152 496,-152"/>
</g>
<!-- 18 -->
<g id="node19" class="node"><title>18</title>
<defs>
<linearGradient id="l_20" gradientUnits="userSpaceOnUse" x1="564.24" y1="-124.196" x2="609.76" y2="-143.804" >
<stop offset="0.629" style="stop-color:yellow;stop-opacity:1.;"/>
<stop offset="0.630" style="stop-color:#00bfff;stop-opacity:1.;"/>
</linearGradient>
</defs>
<ellipse fill="url(#l_20)" stroke="midnightblue" cx="587" cy="-134" rx="27.1387" ry="18"/>
<text text-anchor="middle" x="587" y="-129.8" font-family="Helvetica,sans-Serif" font-weight="bold" font-size="14.00" fill="#121212">0.63</text>
</g>
<!-- 6&#45;&gt;18 -->
<g id="edge43" class="edge"><title>6:s&#45;&gt;18:n</title>
<path fill="none" stroke="#8b8878" d="M405,-188C405,-188 587,-152 587,-152"/>
</g>
<!-- 19 -->
<g id="node20" class="node"><title>19</title>
<defs>
<linearGradient id="l_21" gradientUnits="userSpaceOnUse" x1="655.24" y1="-124.196" x2="700.76" y2="-143.804" >
<stop offset="0.169" style="stop-color:yellow;stop-opacity:1.;"/>
<stop offset="0.170" style="stop-color:#00bfff;stop-opacity:1.;"/>
</linearGradient>
</defs>
<ellipse fill="url(#l_21)" stroke="midnightblue" cx="678" cy="-134" rx="27.1387" ry="18"/>
<text text-anchor="middle" x="678" y="-129.8" font-family="Helvetica,sans-Serif" font-weight="bold" font-size="14.00" fill="#121212">0.17</text>
</g>
<!-- 6&#45;&gt;19 -->
<g id="edge44" class="edge"><title>6:s&#45;&gt;19:n</title>
<path fill="none" stroke="#8b8878" d="M405,-188C405,-188 678,-152 678,-152"/>
</g>
<!-- 7&#45;&gt;12 -->
<g id="edge45" class="edge"><title>7:s&#45;&gt;12:n</title>
<path fill="none" stroke="#8b8878" d="M314,-188C314,-188 43,-152 43,-152"/>
</g>
<!-- 7&#45;&gt;13 -->
<g id="edge46" class="edge"><title>7:s&#45;&gt;13:n</title>
<path fill="none" stroke="#8b8878" d="M314,-188C314,-188 134,-152 134,-152"/>
</g>
<!-- 7&#45;&gt;14 -->
<g id="edge47" class="edge"><title>7:s&#45;&gt;14:n</title>
<path fill="none" stroke="#8b8878" d="M314,-188C314,-188 225,-152 225,-152"/>
</g>
<!-- 7&#45;&gt;15 -->
<g id="edge48" class="edge"><title>7:s&#45;&gt;15:n</title>
<path fill="none" stroke="#8b8878" d="M314,-188C314,-188 315,-152 315,-152"/>
</g>
<!-- 7&#45;&gt;16 -->
<g id="edge49" class="edge"><title>7:s&#45;&gt;16:n</title>
<path fill="none" stroke="#8b8878" d="M314,-188C314,-188 405,-152 405,-152"/>
</g>
<!-- 7&#45;&gt;17 -->
<g id="edge50" class="edge"><title>7:s&#45;&gt;17:n</title>
<path fill="none" stroke="#8b8878" d="M314,-188C314,-188 496,-152 496,-152"/>
</g>
<!-- 7&#45;&gt;18 -->
<g id="edge51" class="edge"><title>7:s&#45;&gt;18:n</title>
<path fill="none" stroke="#8b8878" d="M314,-188C314,-188 587,-152 587,-152"/>
</g>
<!-- 7&#45;&gt;19 -->
<g id="edge52" class="edge"><title>7:s&#45;&gt;19:n</title>
<path fill="none" stroke="#8b8878" d="M314,-188C314,-188 678,-152 678,-152"/>
</g>
<!-- 8&#45;&gt;12 -->
<g id="edge53" class="edge"><title>8:s&#45;&gt;12:n</title>
<path fill="none" stroke="#8b8878" d="M223,-188C223,-188 43,-152 43,-152"/>
</g>
<!-- 8&#45;&gt;13 -->
<g id="edge54" class="edge"><title>8:s&#45;&gt;13:n</title>
<path fill="none" stroke="#8b8878" d="M223,-188C223,-188 134,-152 134,-152"/>
</g>
<!-- 8&#45;&gt;14 -->
<g id="edge55" class="edge"><title>8:s&#45;&gt;14:n</title>
<path fill="none" stroke="#8b8878" d="M223,-188C223,-188 225,-152 225,-152"/>
</g>
<!-- 8&#45;&gt;15 -->
<g id="edge56" class="edge"><title>8:s&#45;&gt;15:n</title>
<path fill="none" stroke="#8b8878" d="M223,-188C223,-188 315,-152 315,-152"/>
</g>
<!-- 8&#45;&gt;16 -->
<g id="edge57" class="edge"><title>8:s&#45;&gt;16:n</title>
<path fill="none" stroke="#8b8878" d="M223,-188C223,-188 405,-152 405,-152"/>
</g>
<!-- 8&#45;&gt;17 -->
<g id="edge58" class="edge"><title>8:s&#45;&gt;17:n</title>
<path fill="none" stroke="#8b8878" d="M223,-188C223,-188 496,-152 496,-152"/>
</g>
<!-- 8&#45;&gt;18 -->
<g id="edge59" class="edge"><title>8:s&#45;&gt;18:n</title>
<path fill="none" stroke="#8b8878" d="M223,-188C223,-188 587,-152 587,-152"/>
</g>
<!-- 8&#45;&gt;19 -->
<g id="edge60" class="edge"><title>8:s&#45;&gt;19:n</title>
<path fill="none" stroke="#8b8878" d="M223,-188C223,-188 678,-152 678,-152"/>
</g>
<!-- 9&#45;&gt;12 -->
<g id="edge61" class="edge"><title>9:s&#45;&gt;12:n</title>
<path fill="none" stroke="#8b8878" d="M132,-188C132,-188 43,-152 43,-152"/>
</g>
<!-- 9&#45;&gt;13 -->
<g id="edge62" class="edge"><title>9:s&#45;&gt;13:n</title>
<path fill="none" stroke="#8b8878" d="M132,-188C132,-188 134,-152 134,-152"/>
</g>
<!-- 9&#45;&gt;14 -->
<g id="edge63" class="edge"><title>9:s&#45;&gt;14:n</title>
<path fill="none" stroke="#8b8878" d="M132,-188C132,-188 225,-152 225,-152"/>
</g>
<!-- 9&#45;&gt;15 -->
<g id="edge64" class="edge"><title>9:s&#45;&gt;15:n</title>
<path fill="none" stroke="#8b8878" d="M132,-188C132,-188 315,-152 315,-152"/>
</g>
<!-- 9&#45;&gt;16 -->
<g id="edge65" class="edge"><title>9:s&#45;&gt;16:n</title>
<path fill="none" stroke="#8b8878" d="M132,-188C132,-188 405,-152 405,-152"/>
</g>
<!-- 9&#45;&gt;17 -->
<g id="edge66" class="edge"><title>9:s&#45;&gt;17:n</title>
<path fill="none" stroke="#8b8878" d="M132,-188C132,-188 496,-152 496,-152"/>
</g>
<!-- 9&#45;&gt;18 -->
<g id="edge67" class="edge"><title>9:s&#45;&gt;18:n</title>
<path fill="none" stroke="#8b8878" d="M132,-188C132,-188 587,-152 587,-152"/>
</g>
<!-- 9&#45;&gt;19 -->
<g id="edge68" class="edge"><title>9:s&#45;&gt;19:n</title>
<path fill="none" stroke="#8b8878" d="M132,-188C132,-188 678,-152 678,-152"/>
</g>
<!-- 10&#45;&gt;12 -->
<g id="edge69" class="edge"><title>10:s&#45;&gt;12:n</title>
<path fill="none" stroke="#8b8878" d="M587,-188C587,-188 43,-152 43,-152"/>
</g>
<!-- 10&#45;&gt;13 -->
<g id="edge70" class="edge"><title>10:s&#45;&gt;13:n</title>
<path fill="none" stroke="#8b8878" d="M587,-188C587,-188 134,-152 134,-152"/>
</g>
<!-- 10&#45;&gt;14 -->
<g id="edge71" class="edge"><title>10:s&#45;&gt;14:n</title>
<path fill="none" stroke="#8b8878" d="M587,-188C587,-188 225,-152 225,-152"/>
</g>
<!-- 10&#45;&gt;15 -->
<g id="edge72" class="edge"><title>10:s&#45;&gt;15:n</title>
<path fill="none" stroke="#8b8878" d="M587,-188C587,-188 315,-152 315,-152"/>
</g>
<!-- 10&#45;&gt;16 -->
<g id="edge73" class="edge"><title>10:s&#45;&gt;16:n</title>
<path fill="none" stroke="#8b8878" d="M587,-188C587,-188 405,-152 405,-152"/>
</g>
<!-- 10&#45;&gt;17 -->
<g id="edge74" class="edge"><title>10:s&#45;&gt;17:n</title>
<path fill="none" stroke="#8b8878" d="M587,-188C587,-188 496,-152 496,-152"/>
</g>
<!-- 10&#45;&gt;18 -->
<g id="edge75" class="edge"><title>10:s&#45;&gt;18:n</title>
<path fill="none" stroke="#8b8878" d="M587,-188C587,-188 587,-152 587,-152"/>
</g>
<!-- 10&#45;&gt;19 -->
<g id="edge76" class="edge"><title>10:s&#45;&gt;19:n</title>
<path fill="none" stroke="#8b8878" d="M587,-188C587,-188 678,-152 678,-152"/>
</g>
<!-- 11&#45;&gt;12 -->
<g id="edge77" class="edge"><title>11:s&#45;&gt;12:n</title>
<path fill="none" stroke="#8b8878" d="M496,-188C496,-188 43,-152 43,-152"/>
</g>
<!-- 11&#45;&gt;13 -->
<g id="edge78" class="edge"><title>11:s&#45;&gt;13:n</title>
<path fill="none" stroke="#8b8878" d="M496,-188C496,-188 134,-152 134,-152"/>
</g>
<!-- 11&#45;&gt;14 -->
<g id="edge79" class="edge"><title>11:s&#45;&gt;14:n</title>
<path fill="none" stroke="#8b8878" d="M496,-188C496,-188 225,-152 225,-152"/>
</g>
<!-- 11&#45;&gt;15 -->
<g id="edge80" class="edge"><title>11:s&#45;&gt;15:n</title>
<path fill="none" stroke="#8b8878" d="M496,-188C496,-188 315,-152 315,-152"/>
</g>
<!-- 11&#45;&gt;16 -->
<g id="edge81" class="edge"><title>11:s&#45;&gt;16:n</title>
<path fill="none" stroke="#8b8878" d="M496,-188C496,-188 405,-152 405,-152"/>
</g>
<!-- 11&#45;&gt;17 -->
<g id="edge82" class="edge"><title>11:s&#45;&gt;17:n</title>
<path fill="none" stroke="#8b8878" d="M496,-188C496,-188 496,-152 496,-152"/>
</g>
<!-- 11&#45;&gt;18 -->
<g id="edge83" class="edge"><title>11:s&#45;&gt;18:n</title>
<path fill="none" stroke="#8b8878" d="M496,-188C496,-188 587,-152 587,-152"/>
</g>
<!-- 11&#45;&gt;19 -->
<g id="edge84" class="edge"><title>11:s&#45;&gt;19:n</title>
<path fill="none" stroke="#8b8878" d="M496,-188C496,-188 678,-152 678,-152"/>
</g>
<!-- 20 -->
<g id="node21" class="node"><title>20</title>
<defs>
<linearGradient id="l_22" gradientUnits="userSpaceOnUse" x1="468" y1="-62" x2="522" y2="-62" >
<stop offset="0" style="stop-color:orange;stop-opacity:1.;"/>
<stop offset="1" style="stop-color:firebrick;stop-opacity:1.;"/>
</linearGradient>
</defs>
<ellipse fill="url(#l_22)" stroke="midnightblue" cx="495" cy="-62" rx="27" ry="18"/>
<text text-anchor="middle" x="495" y="-57.8" font-family="Helvetica,sans-Serif" font-weight="bold" font-size="14.00">4</text>
</g>
<!-- 12&#45;&gt;20 -->
<g id="edge85" class="edge"><title>12:s&#45;&gt;20:n</title>
<path fill="none" stroke="#36648b" d="M43,-115C43,-115 430.396,-85.8596 487.9,-81.5341"/>
<polygon fill="#36648b" stroke="#36648b" points="488.204,-83.9683 495,-81 487.836,-79.0821 488.204,-83.9683"/>
</g>
<!-- 21 -->
<g id="node22" class="node"><title>21</title>
<defs>
<linearGradient id="l_23" gradientUnits="userSpaceOnUse" x1="378" y1="-62" x2="432" y2="-62" >
<stop offset="0" style="stop-color:orange;stop-opacity:1.;"/>
<stop offset="1" style="stop-color:firebrick;stop-opacity:1.;"/>
</linearGradient>
</defs>
<ellipse fill="url(#l_23)" stroke="midnightblue" cx="405" cy="-62" rx="27" ry="18"/>
<text text-anchor="middle" x="405" y="-57.8" font-family="Helvetica,sans-Serif" font-weight="bold" font-size="14.00">3</text>
</g>
<!-- 12&#45;&gt;21 -->
<g id="edge86" class="edge"><title>12:s&#45;&gt;21:n</title>
<path fill="none" stroke="#36648b" d="M43,-115C43,-115 346.749,-86.4711 397.769,-81.6792"/>
<polygon fill="#36648b" stroke="#36648b" points="398.26,-84.0939 405,-81 397.802,-79.2154 398.26,-84.0939"/>
</g>
<!-- 22 -->
<g id="node23" class="node"><title>22</title>
<defs>
<linearGradient id="l_24" gradientUnits="userSpaceOnUse" x1="288" y1="-62" x2="342" y2="-62" >
<stop offset="0" style="stop-color:orange;stop-opacity:1.;"/>
<stop offset="1" style="stop-color:firebrick;stop-opacity:1.;"/>
</linearGradient>
</defs>
<ellipse fill="url(#l_24)" stroke="midnightblue" cx="315" cy="-62" rx="27" ry="18"/>
<text text-anchor="middle" x="315" y="-57.8" font-family="Helvetica,sans-Serif" font-weight="bold" font-size="14.00">2</text>
</g>
<!-- 12&#45;&gt;22 -->
<g id="edge87" class="edge"><title>12:s&#45;&gt;22:n</title>
<path fill="none" stroke="#36648b" d="M43,-115C43,-115 265.429,-87.1964 308.003,-81.8746"/>
<polygon fill="#36648b" stroke="#36648b" points="308.358,-84.2994 315,-81 307.75,-79.4372 308.358,-84.2994"/>
</g>
<!-- 23 -->
<g id="node24" class="node"><title>23</title>
<defs>
<linearGradient id="l_25" gradientUnits="userSpaceOnUse" x1="198" y1="-62" x2="252" y2="-62" >
<stop offset="0" style="stop-color:orange;stop-opacity:1.;"/>
<stop offset="1" style="stop-color:firebrick;stop-opacity:1.;"/>
</linearGradient>
</defs>
<ellipse fill="url(#l_25)" stroke="midnightblue" cx="225" cy="-62" rx="27" ry="18"/>
<text text-anchor="middle" x="225" y="-57.8" font-family="Helvetica,sans-Serif" font-weight="bold" font-size="14.00">1</text>
</g>
<!-- 12&#45;&gt;23 -->
<g id="edge88" class="edge"><title>12:s&#45;&gt;23:n</title>
<path fill="none" stroke="#36648b" d="M43,-115C43,-115 184.843,-88.5018 218.088,-82.2913"/>
<polygon fill="#36648b" stroke="#36648b" points="218.569,-84.6939 225,-81 217.669,-79.8772 218.569,-84.6939"/>
</g>
<!-- 13&#45;&gt;20 -->
<g id="edge89" class="edge"><title>13:s&#45;&gt;20:n</title>
<path fill="none" stroke="#36648b" d="M134,-115C134,-115 436.91,-86.4711 487.789,-81.6792"/>
<polygon fill="#36648b" stroke="#36648b" points="488.261,-84.0957 495,-81 487.801,-79.2173 488.261,-84.0957"/>
</g>
<!-- 13&#45;&gt;21 -->
<g id="edge90" class="edge"><title>13:s&#45;&gt;21:n</title>
<path fill="none" stroke="#36648b" d="M134,-115C134,-115 355.611,-87.1964 398.029,-81.8746"/>
<polygon fill="#36648b" stroke="#36648b" points="398.359,-84.3024 405,-81 397.749,-79.4405 398.359,-84.3024"/>
</g>
<!-- 13&#45;&gt;22 -->
<g id="edge91" class="edge"><title>13:s&#45;&gt;22:n</title>
<path fill="none" stroke="#36648b" d="M134,-115C134,-115 273.818,-88.7358 307.68,-82.375"/>
<polygon fill="#36648b" stroke="#36648b" points="308.573,-84.7003 315,-81 307.668,-79.8845 308.573,-84.7003"/>
</g>
<!-- 13&#45;&gt;23 -->
<g id="edge92" class="edge"><title>13:s&#45;&gt;23:n</title>
<path fill="none" stroke="#36648b" d="M134,-115C134,-115 196.997,-91.4626 218.16,-83.5555"/>
<polygon fill="#36648b" stroke="#36648b" points="219.3,-85.7451 225,-81 217.585,-81.155 219.3,-85.7451"/>
</g>
<!-- 14&#45;&gt;20 -->
<g id="edge93" class="edge"><title>14:s&#45;&gt;20:n</title>
<path fill="none" stroke="#36648b" d="M225,-115C225,-115 445.793,-87.1964 488.054,-81.8746"/>
<polygon fill="#36648b" stroke="#36648b" points="488.361,-84.3055 495,-81 487.749,-79.4439 488.361,-84.3055"/>
</g>
<!-- 14&#45;&gt;21 -->
<g id="edge94" class="edge"><title>14:s&#45;&gt;21:n</title>
<path fill="none" stroke="#36648b" d="M225,-115C225,-115 364.046,-88.7358 397.721,-82.375"/>
<polygon fill="#36648b" stroke="#36648b" points="398.576,-84.7068 405,-81 397.667,-79.8919 398.576,-84.7068"/>
</g>
<!-- 14&#45;&gt;22 -->
<g id="edge95" class="edge"><title>14:s&#45;&gt;22:n</title>
<path fill="none" stroke="#36648b" d="M225,-115C225,-115 287.305,-91.4626 308.235,-83.5555"/>
<polygon fill="#36648b" stroke="#36648b" points="309.318,-85.7658 315,-81 307.586,-81.182 309.318,-85.7658"/>
</g>
<!-- 14&#45;&gt;23 -->
<g id="edge96" class="edge"><title>14:s&#45;&gt;23:n</title>
<path fill="none" stroke="#36648b" d="M225,-115C225,-115 225,-98.1909 225,-88.2105"/>
<polygon fill="#36648b" stroke="#36648b" points="227.45,-88 225,-81 222.55,-88 227.45,-88"/>
</g>
<!-- 15&#45;&gt;20 -->
<g id="edge97" class="edge"><title>15:s&#45;&gt;20:n</title>
<path fill="none" stroke="#36648b" d="M315,-115C315,-115 454.046,-88.7358 487.721,-82.375"/>
<polygon fill="#36648b" stroke="#36648b" points="488.576,-84.7068 495,-81 487.667,-79.8919 488.576,-84.7068"/>
</g>
<!-- 15&#45;&gt;21 -->
<g id="edge98" class="edge"><title>15:s&#45;&gt;21:n</title>
<path fill="none" stroke="#36648b" d="M315,-115C315,-115 377.305,-91.4626 398.235,-83.5555"/>
<polygon fill="#36648b" stroke="#36648b" points="399.318,-85.7658 405,-81 397.586,-81.182 399.318,-85.7658"/>
</g>
<!-- 15&#45;&gt;22 -->
<g id="edge99" class="edge"><title>15:s&#45;&gt;22:n</title>
<path fill="none" stroke="#36648b" d="M315,-115C315,-115 315,-98.1909 315,-88.2105"/>
<polygon fill="#36648b" stroke="#36648b" points="317.45,-88 315,-81 312.55,-88 317.45,-88"/>
</g>
<!-- 15&#45;&gt;23 -->
<g id="edge100" class="edge"><title>15:s&#45;&gt;23:n</title>
<path fill="none" stroke="#36648b" d="M315,-115C315,-115 252.695,-91.4626 231.765,-83.5555"/>
<polygon fill="#36648b" stroke="#36648b" points="232.414,-81.182 225,-81 230.682,-85.7658 232.414,-81.182"/>
</g>
<!-- 16&#45;&gt;20 -->
<g id="edge101" class="edge"><title>16:s&#45;&gt;20:n</title>
<path fill="none" stroke="#36648b" d="M405,-115C405,-115 467.305,-91.4626 488.235,-83.5555"/>
<polygon fill="#36648b" stroke="#36648b" points="489.318,-85.7658 495,-81 487.586,-81.182 489.318,-85.7658"/>
</g>
<!-- 16&#45;&gt;21 -->
<g id="edge102" class="edge"><title>16:s&#45;&gt;21:n</title>
<path fill="none" stroke="#36648b" d="M405,-115C405,-115 405,-98.1909 405,-88.2105"/>
<polygon fill="#36648b" stroke="#36648b" points="407.45,-88 405,-81 402.55,-88 407.45,-88"/>
</g>
<!-- 16&#45;&gt;22 -->
<g id="edge103" class="edge"><title>16:s&#45;&gt;22:n</title>
<path fill="none" stroke="#36648b" d="M405,-115C405,-115 342.695,-91.4626 321.765,-83.5555"/>
<polygon fill="#36648b" stroke="#36648b" points="322.414,-81.182 315,-81 320.682,-85.7658 322.414,-81.182"/>
</g>
<!-- 16&#45;&gt;23 -->
<g id="edge104" class="edge"><title>16:s&#45;&gt;23:n</title>
<path fill="none" stroke="#36648b" d="M405,-115C405,-115 265.954,-88.7358 232.279,-82.375"/>
<polygon fill="#36648b" stroke="#36648b" points="232.333,-79.8919 225,-81 231.424,-84.7068 232.333,-79.8919"/>
</g>
<!-- 17&#45;&gt;20 -->
<g id="edge105" class="edge"><title>17:s&#45;&gt;20:n</title>
<path fill="none" stroke="#36648b" d="M496,-115C496,-115 495.506,-98.1909 495.212,-88.2105"/>
<polygon fill="#36648b" stroke="#36648b" points="497.655,-87.9249 495,-81 492.757,-88.069 497.655,-87.9249"/>
</g>
<!-- 17&#45;&gt;21 -->
<g id="edge106" class="edge"><title>17:s&#45;&gt;21:n</title>
<path fill="none" stroke="#36648b" d="M496,-115C496,-115 433.003,-91.4626 411.84,-83.5555"/>
<polygon fill="#36648b" stroke="#36648b" points="412.415,-81.155 405,-81 410.7,-85.7451 412.415,-81.155"/>
</g>
<!-- 17&#45;&gt;22 -->
<g id="edge107" class="edge"><title>17:s&#45;&gt;22:n</title>
<path fill="none" stroke="#36648b" d="M496,-115C496,-115 356.182,-88.7358 322.32,-82.375"/>
<polygon fill="#36648b" stroke="#36648b" points="322.332,-79.8845 315,-81 321.427,-84.7003 322.332,-79.8845"/>
</g>
<!-- 17&#45;&gt;23 -->
<g id="edge108" class="edge"><title>17:s&#45;&gt;23:n</title>
<path fill="none" stroke="#36648b" d="M496,-115C496,-115 274.389,-87.1964 231.971,-81.8746"/>
<polygon fill="#36648b" stroke="#36648b" points="232.251,-79.4405 225,-81 231.641,-84.3024 232.251,-79.4405"/>
</g>
<!-- 18&#45;&gt;20 -->
<g id="edge109" class="edge"><title>18:s&#45;&gt;20:n</title>
<path fill="none" stroke="#36648b" d="M587,-115C587,-115 522.711,-91.2411 501.616,-83.4452"/>
<polygon fill="#36648b" stroke="#36648b" points="502.415,-81.1285 495,-81 500.717,-85.7247 502.415,-81.1285"/>
</g>
<!-- 18&#45;&gt;21 -->
<g id="edge110" class="edge"><title>18:s&#45;&gt;21:n</title>
<path fill="none" stroke="#36648b" d="M587,-115C587,-115 445.157,-88.5018 411.912,-82.2913"/>
<polygon fill="#36648b" stroke="#36648b" points="412.331,-79.8772 405,-81 411.431,-84.6939 412.331,-79.8772"/>
</g>
<!-- 18&#45;&gt;22 -->
<g id="edge111" class="edge"><title>18:s&#45;&gt;22:n</title>
<path fill="none" stroke="#36648b" d="M587,-115C587,-115 364.571,-87.1964 321.997,-81.8746"/>
<polygon fill="#36648b" stroke="#36648b" points="322.25,-79.4372 315,-81 321.642,-84.2994 322.25,-79.4372"/>
</g>
<!-- 18&#45;&gt;23 -->
<g id="edge112" class="edge"><title>18:s&#45;&gt;23:n</title>
<path fill="none" stroke="#36648b" d="M587,-115C587,-115 283.251,-86.4711 232.231,-81.6792"/>
<polygon fill="#36648b" stroke="#36648b" points="232.198,-79.2154 225,-81 231.74,-84.0939 232.198,-79.2154"/>
</g>
<!-- 19&#45;&gt;20 -->
<g id="edge113" class="edge"><title>19:s&#45;&gt;20:n</title>
<path fill="none" stroke="#36648b" d="M678,-115C678,-115 535.378,-88.5018 501.95,-82.2913"/>
<polygon fill="#36648b" stroke="#36648b" points="502.33,-79.87 495,-81 501.435,-84.6875 502.33,-79.87"/>
</g>
<!-- 19&#45;&gt;21 -->
<g id="edge114" class="edge"><title>19:s&#45;&gt;21:n</title>
<path fill="none" stroke="#36648b" d="M678,-115C678,-115 454.753,-87.1964 412.023,-81.8746"/>
<polygon fill="#36648b" stroke="#36648b" points="412.249,-79.434 405,-81 411.644,-84.2964 412.249,-79.434"/>
</g>
<!-- 19&#45;&gt;22 -->
<g id="edge115" class="edge"><title>19:s&#45;&gt;22:n</title>
<path fill="none" stroke="#36648b" d="M678,-115C678,-115 373.412,-86.4711 322.251,-81.6792"/>
<polygon fill="#36648b" stroke="#36648b" points="322.198,-79.2136 315,-81 321.741,-84.0922 322.198,-79.2136"/>
</g>
<!-- 19&#45;&gt;23 -->
<g id="edge116" class="edge"><title>19:s&#45;&gt;23:n</title>
<path fill="none" stroke="#36648b" d="M678,-115C678,-115 289.747,-85.8596 232.116,-81.5341"/>
<polygon fill="#36648b" stroke="#36648b" points="232.164,-79.0809 225,-81 231.797,-83.9671 232.164,-79.0809"/>
</g>
</g>
</svg>
